<?xml version="1.0" encoding="utf-8"?>
<!-- Generator: Adobe Illustrator 27.1.1, SVG Export Plug-In . SVG Version: 6.00 Build 0)  -->
<svg version="1.1" id="圖層_1" xmlns="http://www.w3.org/2000/svg" xmlns:xlink="http://www.w3.org/1999/xlink" x="0px" y="0px"
	 viewBox="0 0 19.41 20" style="enable-background:new 0 0 19.41 20;" xml:space="preserve">
<style type="text/css">
	.st0{fill:#FFFFFF;}
</style>
<g>
	<g>
		<path d="M18.92,10c0-5.09-4.12-9.21-9.21-9.21c-5.09,0-9.21,4.12-9.21,9.21c0,4.6,3.37,8.41,7.77,9.1v-6.44H5.93V10h2.34V7.97
			c0-2.31,1.38-3.58,3.48-3.58c1.01,0,2.06,0.18,2.06,0.18v2.27h-1.16c-1.14,0-1.5,0.71-1.5,1.44V10h2.55l-0.41,2.66h-2.15v6.44
			C15.55,18.41,18.92,14.6,18.92,10z"/>
		<path class="st0" d="M13.29,12.66L13.7,10h-2.55V8.27c0-0.73,0.36-1.44,1.5-1.44h1.16V4.57c0,0-1.05-0.18-2.06-0.18
			c-2.1,0-3.48,1.28-3.48,3.58V10H5.93v2.66h2.34v6.44c0.47,0.07,0.95,0.11,1.44,0.11c0.49,0,0.97-0.04,1.44-0.11v-6.44H13.29z"/>
	</g>
</g>
</svg>
