<?xml version="1.0" encoding="utf-8"?>
<!-- Generator: Adobe Illustrator 27.1.1, SVG Export Plug-In . SVG Version: 6.00 Build 0)  -->
<svg version="1.1" id="圖層_1" xmlns="http://www.w3.org/2000/svg" xmlns:xlink="http://www.w3.org/1999/xlink" x="0px" y="0px"
	 viewBox="0 0 19.41 20" style="enable-background:new 0 0 19.41 20;" xml:space="preserve">
<style type="text/css">
	.st0{fill:#FFFFFF;}
</style>
<g>
	<circle cx="9.7" cy="10" r="9.42"/>
	<g>
		<g>
			<path class="st0" d="M12.63,6.44c-0.36,0-0.65,0.29-0.65,0.65c0,0.36,0.29,0.65,0.65,0.65c0.36,0,0.65-0.29,0.65-0.65
				C13.28,6.73,12.99,6.44,12.63,6.44z"/>
			<path class="st0" d="M9.75,7.27c-1.5,0-2.72,1.22-2.72,2.72c0,1.5,1.22,2.72,2.72,2.72c1.5,0,2.72-1.22,2.72-2.72
				C12.47,8.49,11.25,7.27,9.75,7.27z M9.75,11.73c-0.96,0-1.74-0.78-1.74-1.74c0-0.96,0.78-1.74,1.74-1.74s1.74,0.78,1.74,1.74
				C11.49,10.95,10.71,11.73,9.75,11.73z"/>
			<path class="st0" d="M11.91,15.51H7.5c-1.83,0-3.32-1.49-3.32-3.32V7.78c0-1.83,1.49-3.32,3.32-3.32h4.41
				c1.83,0,3.32,1.49,3.32,3.32v4.41C15.23,14.02,13.74,15.51,11.91,15.51z M7.5,5.5c-1.26,0-2.28,1.02-2.28,2.28v4.41
				c0,1.26,1.02,2.28,2.28,2.28h4.41c1.26,0,2.28-1.02,2.28-2.28V7.78c0-1.26-1.02-2.28-2.28-2.28H7.5z"/>
		</g>
	</g>
</g>
</svg>
