<?xml version="1.0" encoding="utf-8"?>
<!-- Generator: Adobe Illustrator 27.1.1, SVG Export Plug-In . SVG Version: 6.00 Build 0)  -->
<svg version="1.1" id="圖層_1" xmlns="http://www.w3.org/2000/svg" xmlns:xlink="http://www.w3.org/1999/xlink" x="0px" y="0px"
	 viewBox="0 0 19.41 20" style="enable-background:new 0 0 19.41 20;" xml:space="preserve">
<style type="text/css">
	.st0{fill:#FFFFFF;}
</style>
<g>
	<circle cx="9.7" cy="10" r="9"/>
	<path class="st0" d="M14.68,6.92c-0.31,0.14-0.66,0.23-0.99,0.28c0.16-0.03,0.39-0.32,0.49-0.43c0.14-0.18,0.26-0.38,0.33-0.6
		c0.01-0.02,0.01-0.04,0-0.05c-0.02-0.01-0.04,0-0.05,0c-0.38,0.2-0.76,0.35-1.18,0.45c-0.03,0.01-0.06,0-0.08-0.02
		c-0.03-0.04-0.07-0.08-0.1-0.11c-0.17-0.15-0.36-0.26-0.57-0.35c-0.28-0.11-0.58-0.16-0.87-0.14c-0.29,0.02-0.57,0.1-0.83,0.23
		c-0.26,0.13-0.49,0.32-0.67,0.55c-0.19,0.23-0.33,0.51-0.4,0.8C9.67,7.82,9.68,8.09,9.72,8.38c0.01,0.05,0,0.05-0.04,0.05
		C8.06,8.19,6.72,7.61,5.64,6.37c-0.05-0.05-0.07-0.05-0.11,0C5.05,7.08,5.28,8.23,5.88,8.79c0.08,0.08,0.16,0.15,0.25,0.22
		C6.09,9.02,5.7,8.98,5.34,8.79C5.3,8.76,5.27,8.78,5.27,8.84c0,0.08,0,0.15,0.01,0.23c0.09,0.72,0.59,1.39,1.28,1.65
		c0.08,0.03,0.17,0.06,0.26,0.08c-0.16,0.03-0.32,0.06-0.77,0.02C6,10.81,5.98,10.84,6,10.89c0.34,0.92,1.06,1.19,1.61,1.35
		c0.07,0.01,0.15,0.01,0.22,0.03c0,0.01-0.01,0.01-0.01,0.01c-0.18,0.28-0.81,0.48-1.1,0.58c-0.53,0.19-1.11,0.27-1.67,0.21
		c-0.09-0.01-0.11-0.01-0.13,0c-0.02,0.02,0,0.04,0.03,0.06c0.11,0.08,0.23,0.14,0.35,0.21c0.36,0.19,0.73,0.34,1.12,0.45
		c2,0.55,4.26,0.15,5.77-1.35c1.18-1.17,1.6-2.79,1.6-4.41c0-0.06,0.07-0.1,0.12-0.13c0.31-0.23,0.56-0.51,0.78-0.82
		c0.05-0.07,0.05-0.13,0.05-0.16c0,0,0-0.01,0-0.01C14.72,6.89,14.72,6.9,14.68,6.92z"/>
</g>
</svg>
